# xmcd CD database file
#
# Track frame offsets:
#	150
#	23188
#	45764
#	63717
#	86961
#	107025
#	127312
#	150076
#	174348
#	200369
#	232352
#
# Disc length: 3291 seconds
#
# Revision: 1
# Processed by: cddbd v1.4PL0 Copyright (c) Steve Scherf et al.
# Submitted via: CDex 1.51
#
DISCID=910cd90b
DTITLE=Mark Brier and Daddyblue - 2002 - Live at Sambuka Jazz Cafe
DYEAR=2002
DGENRE=Blues
TTITLE0=Is You Is or Is You Anit My Baby
TTITLE1=Fool for You
TTITLE2=Jack You Dead
TTITLE3=Fly Me to the Moon
TTITLE4=Do You Know What It Means to Miss New Orleans
TTITLE5=Regular Joe
TTITLE6=Accentuate the Positive
TTITLE7=Route 66
TTITLE8=Such a Night
TTITLE9=Masquerade
TTITLE10=A Song for You
EXTD=YEAR: 2002
EXTT0=
EXTT1=
EXTT2=
EXTT3=
EXTT4=
EXTT5=
EXTT6=
EXTT7=
EXTT8=
EXTT9=
EXTT10=
PLAYORDER=
